# xmcd
#
# Track frame offsets: 
#        150
#        21547
#        37747
#        58899
#        69608
#        85119
#        101080
#        120890
#        138508
#
# Disc length: 2020 seconds
#
# Revision: 0
# Processed by: cddbd v1.5.2PL0 Copyright (c) Steve Scherf et al.
# Submitted via: ExactAudioCopy v1.0b3
#
DISCID=7607e209
DTITLE=Michelle David - The Gospel Sessions Vol. 1
DYEAR=2015
DGENRE=Gospel
TTITLE0=Need Your Help
TTITLE1=By And By
TTITLE2=Do Not Pass Me By
TTITLE3=There's A Light
TTITLE4=Can't No Grave
TTITLE5=Made It Over
TTITLE6=I Want To Know
TTITLE7=Where I'm Going
TTITLE8=He Chose Me
EXTD=
EXTT0=
EXTT1=
EXTT2=
EXTT3=
EXTT4=
EXTT5=
EXTT6=
EXTT7=
EXTT8=
PLAYORDER=
